<svg width="92" height="92" viewBox="0 0 92 92" fill="none" xmlns="http://www.w3.org/2000/svg">
<rect width="92" height="92" rx="46" fill="white"/>
<path d="M46 44.5C44.0109 44.5 42.1032 43.7098 40.6967 42.3033C39.2902 40.8968 38.5 38.9891 38.5 37C38.5 35.0109 39.2902 33.1032 40.6967 31.6967C42.1032 30.2902 44.0109 29.5 46 29.5C47.9891 29.5 49.8968 30.2902 51.3033 31.6967C52.7098 33.1032 53.5 35.0109 53.5 37C53.5 37.9849 53.306 38.9602 52.9291 39.8701C52.5522 40.7801 51.9997 41.6069 51.3033 42.3033C50.6069 42.9997 49.7801 43.5522 48.8701 43.9291C47.9602 44.306 46.9849 44.5 46 44.5ZM46 16C40.4305 16 35.089 18.2125 31.1508 22.1508C27.2125 26.089 25 31.4305 25 37C25 52.75 46 76 46 76C46 76 67 52.75 67 37C67 31.4305 64.7875 26.089 60.8492 22.1508C56.911 18.2125 51.5695 16 46 16Z" fill="url(#paint0_linear_115_6)"/>
<defs>
<linearGradient id="paint0_linear_115_6" x1="46" y1="16" x2="46" y2="76" gradientUnits="userSpaceOnUse">
<stop stop-color="#66D4FF"/>
<stop offset="1" stop-color="#40FFC2"/>
</linearGradient>
</defs>
</svg>
